# Blender 4.1.0
# www.blender.org
o Left_Hand
v -0.385243 0.675053 -0.075000
v -0.214243 0.675053 -0.075000
v -0.385243 1.350052 -0.075000
v -0.214243 1.350052 -0.075000
v -0.385243 0.675053 0.075000
v -0.214243 0.675053 0.075000
v -0.385243 1.350052 0.075000
v -0.214243 1.350052 0.075000
vn -0.0000 -0.0000 -1.0000
vn -0.0000 -0.0000 1.0000
vn -1.0000 -0.0000 -0.0000
vn -0.0000 1.0000 -0.0000
vn -0.0000 -1.0000 -0.0000
vn 1.0000 -0.0000 -0.0000
vt 0.750000 0.687500
vt 0.796875 0.500000
vt 0.750000 0.500000
vt 0.687500 0.500000
vt 0.640625 0.687500
vt 0.640625 0.500000
vt 0.734375 0.687500
vt 0.687500 0.687500
vt 0.687500 0.734375
vt 0.734375 0.734375
vt 0.750000 0.750000
vt 0.812500 0.687500
vt 0.859375 0.500000
vt 0.812500 0.500000
vt 0.796875 0.687500
vt 0.734375 0.500000
vt 0.812500 0.750000
vt 0.859375 0.687500
s 0
f 3/1/1 2/2/1 1/3/1
f 6/4/2 7/5/2 5/6/2
f 1/4/3 7/7/3 3/8/3
f 3/9/4 8/7/4 4/10/4
f 2/11/5 5/12/5 1/1/5
f 4/12/6 6/13/6 2/14/6
f 3/1/1 4/15/1 2/2/1
f 6/4/2 8/8/2 7/5/2
f 1/4/3 5/16/3 7/7/3
f 3/9/4 7/8/4 8/7/4
f 2/11/5 6/17/5 5/12/5
f 4/12/6 8/18/6 6/13/6
