# Blender 4.1.0
# www.blender.org
o Left_Leg
v -0.009989 0.000098 0.074376
v -0.214239 0.000098 0.074376
v -0.009989 0.675098 0.074376
v -0.214239 0.675098 0.074376
v -0.009989 0.000098 -0.075624
v -0.214239 0.000098 -0.075624
v -0.009989 0.675098 -0.075624
v -0.214239 0.675098 -0.075624
vn -0.0000 -0.0000 1.0000
vn -0.0000 -0.0000 -1.0000
vn -0.0000 -1.0000 -0.0000
vn -1.0000 -0.0000 -0.0000
vn 1.0000 -0.0000 -0.0000
vn -0.0000 1.0000 -0.0000
vt 0.125000 0.687500
vt 0.187500 0.500000
vt 0.125000 0.500000
vt 0.062500 0.687500
vt 0.062500 0.500000
vt 0.187500 0.734375
vt 0.125000 0.734375
vt 0.187500 0.687500
vt 0.234375 0.500000
vt 0.015625 0.500000
vt 0.015625 0.687500
vt 0.062500 0.734375
vt 0.234375 0.687500
s 0
f 3/1/1 2/2/1 1/3/1
f 6/3/2 7/4/2 5/5/2
f 2/6/3 5/1/3 1/7/3
f 4/8/4 6/9/4 2/2/4
f 1/10/5 7/4/5 3/11/5
f 3/12/6 8/1/6 4/7/6
f 3/1/1 4/8/1 2/2/1
f 6/3/2 8/1/2 7/4/2
f 2/6/3 6/8/3 5/1/3
f 4/8/4 8/13/4 6/9/4
f 1/10/5 5/5/5 7/4/5
f 3/12/6 7/4/6 8/1/6
