# Blender 4.1.0
# www.blender.org
o Right_Leg
v 0.213148 0.000098 0.074373
v 0.008898 0.000098 0.074373
v 0.213148 0.675098 0.074373
v 0.008898 0.675098 0.074373
v 0.213148 0.000098 -0.075627
v 0.008898 0.000098 -0.075627
v 0.213148 0.675098 -0.075627
v 0.008898 0.675098 -0.075627
vn -0.0000 -0.0000 1.0000
vn -0.0000 -0.0000 -1.0000
vn -0.0000 1.0000 -0.0000
vn -0.0000 -1.0000 -0.0000
vn -1.0000 -0.0000 -0.0000
vn 1.0000 -0.0000 -0.0000
vt 0.375000 0.187500
vt 0.437500 0.000000
vt 0.375000 0.000000
vt 0.312500 0.187500
vt 0.312500 0.000000
vt 0.375000 0.234375
vt 0.437500 0.234375
vt 0.437500 0.187500
vt 0.484375 0.000000
vt 0.265625 0.187500
vt 0.312500 0.234375
vt 0.484375 0.187500
vt 0.265625 0.000000
s 0
f 3/1/1 2/2/1 1/3/1
f 6/3/2 7/4/2 5/5/2
f 3/4/3 8/6/3 4/1/3
f 2/7/4 5/1/4 1/6/4
f 4/8/5 6/9/5 2/2/5
f 1/5/6 7/10/6 3/4/6
f 3/1/1 4/8/1 2/2/1
f 6/3/2 8/1/2 7/4/2
f 3/4/3 7/11/3 8/6/3
f 2/7/4 6/8/4 5/1/4
f 4/8/5 8/12/5 6/9/5
f 1/5/6 5/13/6 7/10/6
